<svg id="svg" xmlns="http://www.w3.org/2000/svg" xmlns:xlink="http://www.w3.org/1999/xlink" viewBox="0, 0, 400,400"><g id="svgg"><path id="path0" d="M180.831 0.946 C 43.785 15.886,-37.891 156.243,17.459 281.689 C 36.240 324.255,74.581 363.067,116.084 381.528 C 118.484 382.596,121.448 383.926,122.670 384.486 C 163.624 403.216,221.014 404.736,267.093 388.311 C 344.285 360.797,399.884 284.089,399.993 204.952 L 400.000 200.000 375.169 200.000 L 350.338 200.000 349.935 203.355 C 349.713 205.200,349.526 208.147,349.520 209.904 C 349.451 228.075,339.809 258.561,328.097 277.636 C 282.939 351.187,189.592 371.605,115.974 324.034 C 76.257 298.369,50.288 249.331,50.288 200.000 C 50.288 96.611,152.146 24.634,250.160 58.762 C 254.970 60.437,269.649 67.147,269.649 67.671 C 269.649 67.885,262.604 75.101,253.994 83.706 C 245.383 92.311,238.339 99.562,238.339 99.820 C 238.339 100.078,260.623 100.299,287.859 100.312 L 337.380 100.334 337.380 50.332 L 337.380 0.329 322.040 15.659 L 306.700 30.989 303.350 29.140 C 301.508 28.123,299.569 26.932,299.042 26.494 C 297.239 24.994,281.479 17.417,274.121 14.513 C 244.179 2.692,210.176 -2.253,180.831 0.946 M187.220 126.200 C 163.443 130.317,142.679 146.158,132.160 168.207 C 113.066 208.232,134.689 257.924,176.997 271.249 C 225.587 286.551,274.756 250.716,274.756 200.000 C 274.756 153.712,232.770 118.315,187.220 126.200 M215.095 152.389 C 248.581 163.539,260.827 204.611,238.674 231.469 C 208.726 267.776,150.467 246.974,150.541 200.000 C 150.594 165.974,183.347 141.817,215.095 152.389 " fill-rule="evenodd"></path></g></svg>