<svg id="svg" xmlns="http://www.w3.org/2000/svg" xmlns:xlink="http://www.w3.org/1999/xlink" width="400" height="400" viewBox="0, 0, 400,400"><path id="path0" d="M184.286 0.392 C 91.241 8.511,20.986 92.441,29.157 185.714 C 37.064 275.978,109.795 342.636,200.286 342.554 C 247.004 342.512,286.934 326.642,319.143 295.315 L 325.429 289.201 303.146 266.886 C 290.890 254.613,280.639 244.571,280.366 244.571 C 280.092 244.571,277.648 246.676,274.934 249.247 C 225.900 295.715,147.811 287.115,110.538 231.143 C 82.803 189.492,87.450 134.143,121.763 97.471 C 160.885 55.659,228.238 52.109,270.579 89.627 L 272.738 91.540 255.680 108.605 C 246.299 117.991,238.807 125.855,239.032 126.080 C 239.419 126.466,370.953 146.258,371.311 145.983 C 371.530 145.815,351.905 13.509,351.610 13.168 C 351.486 13.025,343.873 20.403,334.692 29.563 L 318.000 46.217 314.571 43.084 C 280.978 12.392,231.723 -3.748,184.286 0.392 M194.000 135.997 C 167.305 139.209,152.723 168.933,166.410 192.232 C 180.351 215.963,216.152 216.310,230.401 192.852 C 246.671 166.069,225.027 132.263,194.000 135.997 " stroke="none" fill="#000000" fill-rule="evenodd"></path></svg>