<svg viewBox="0, 0, 400, 398.6666666666667">
  <path id="path0" d="M137.333 0.423 C 57.283 10.107,-0.019 74.320,0.004 154.316 C 0.036 268.552,119.309 342.104,222.564 291.563 L 232.795 286.555 234.496 288.111 C 235.431 288.967,259.600 312.394,288.203 340.172 C 342.461 392.862,343.991 394.221,352.190 396.973 C 383.470 407.474,410.864 374.269,395.889 344.005 C 393.366 338.907,395.371 340.928,330.918 278.522 L 285.503 234.548 290.923 223.774 C 338.168 129.861,282.488 19.667,178.667 1.609 C 172.563 0.548,143.257 -0.293,137.333 0.423 M163.667 62.719 C 241.207 71.959,272.816 165.706,216.586 219.667 C 161.390 272.635,70.124 237.952,62.626 161.158 C 57.180 105.386,107.807 56.062,163.667 62.719 ">
  </path>
</svg>